<svg xmlns="http://www.w3.org/2000/svg" width="164.061" height="183.511" viewBox="0 0 164.061 183.511"><path fill="#B11116" d="M82.03 183.51L0 167.224V99.94l82.03 16.286"/><path fill="#E4412B" d="M0 167.145l164.06-32.575V0L0 32.574"/><path fill="#FFF" d="M14.756 47.062v33.636h6.8v-13.51h15.768v-6.264h-15.77v-7.33H40.59V47.06m1.626 9.11v24.527h6.533V56.17h-1m16.28 9.11l-3.73-.266c-.76-.06-2.05-.287-2.05-1.135 0-.52 0-1.71 2.86-1.71 1.95 0 3.53.55 5.47 1.9l.74.52 4.04-4.75-.77-.65c-2.68-2.26-5.7-3.3-9.49-3.3-5.71 0-9.4 3.11-9.4 7.93 0 4.12 2.91 7.02 7.4 7.39l3.99.35c1.84.15 1.84.75 1.84 1.22 0 1.75-2.64 1.89-3.45 1.89-2.63 0-4.55-.78-6.41-2.6l-.7-.69-4.6 4.52.75.71c3.05 2.86 6.62 4.31 10.59 4.31 6.18 0 10.33-3.19 10.33-7.94 0-4.61-2.72-7.43-7.467-7.75m21.55-9.36c-1.905 0-3.57.54-4.955 1.5V47.06h-6.53V80.7h6.54V66.28c0-2.37 1.336-3.84 3.49-3.84 2.13 0 3.45 1.47 3.45 3.84V80.7h6.53V64.722c0-5.52-4.328-8.82-8.51-8.82m21.322 0c-4.974 0-10.287 3.31-10.287 12.597 0 11.25 7.69 12.46 11 12.46 3.563 0 6.64-1.38 8.89-3.99l.66-.77-4.77-4.06-.65.67c-1.12 1.15-2.73 1.87-4.21 1.87-2.42 0-3.87-1.32-4.22-3.56h13.89V66.4c0-5.99-4.42-10.506-10.28-10.506m0 6.268c1.95 0 3.18 1.2 3.57 3.24h-7.16c.377-2.01 1.63-3.24 3.584-3.24m28.923-4.32c-1.69-1.3-3.43-1.94-5.32-1.94-1.905 0-3.57.54-4.953 1.5v-1.24H119V80.7h6.53V66.145c0-2.735 1.76-3.71 3.4-3.71.89 0 1.45.213 2.37.91l.76.57 4.57-5.432-.826-.638zM35.97 86.72c-2.578-2.014-4.95-2.43-7.717-2.43H14.755v33.638h6.8V105.57h7.314c7.08 0 10.9-5.413 10.9-10.506 0-3.395-1.43-6.515-3.82-8.347m-2.98 8.213c0 1.98-1.35 4.11-4.29 4.11h-7.13v-8.22h6.96c1.33 0 2.06.182 2.86.72 1.09.728 1.6 1.805 1.6 3.39m20.46-1.8c-1.9 0-3.57.535-4.95 1.5V84.29h-6.53v33.635h6.53v-14.42c0-2.368 1.34-3.84 3.49-3.84 2.12 0 3.44 1.472 3.44 3.84v14.42h6.53V101.95c0-5.52-4.33-8.82-8.51-8.82m11.38.267v24.527h6.53V93.397h-1m10.52 17.705V84.29h-6.53v27.168c0 4.17 2.41 6.466 6.78 6.466h3.97v-6.266h-3.53c-.69 0-.69-.21-.69-.556m12.6 0V84.29h-6.53v27.168c0 4.17 2.4 6.466 6.77 6.466h3.98v-6.266h-3.53c-.69 0-.69-.21-.69-.556m6.79-17.705v24.527h6.53V93.397h-1m15.155-.267c-1.714 0-3.38.55-4.82 1.5v-1.234h-6.53v33.635h6.532v-10.41c1.55 1.06 3.113 1.58 4.82 1.58 3.55 0 5.68-1.81 6.834-3.32 1.463-1.88 1.803-3.6 1.803-9.18 0-5.61-.34-7.34-1.815-9.23-1.15-1.51-3.27-3.32-6.83-3.32m-1.37 6.54c2.99 0 3.49 1.86 3.49 6.02 0 4.13-.5 5.98-3.48 5.98-2.91 0-3.44-2.01-3.44-5.97 0-3.99.54-6.02 3.45-6.02m24.37 2.84l-3.73-.26c-.76-.06-2.045-.28-2.045-1.13 0-.51 0-1.71 2.867-1.71 1.928 0 3.56.57 5.47 1.91l.748.52 4.04-4.75-.77-.64c-2.68-2.25-5.692-3.3-9.48-3.3-5.71 0-9.4 3.12-9.4 7.93 0 4.12 2.906 7.02 7.405 7.4l3.992.36c1.84.16 1.84.75 1.84 1.23 0 1.75-2.63 1.887-3.44 1.887-2.622 0-4.54-.773-6.41-2.6l-.7-.68-4.59 4.53.76.71c3.05 2.86 6.615 4.315 10.595 4.315 6.18 0 10.33-3.19 10.33-7.93 0-4.61-2.72-7.44-7.46-7.75"/></svg>
